<svg xmlns="http://www.w3.org/2000/svg" viewBox="0 0 94.13 94.13"><defs><style>.cls-1{fill:#2786a0;}.cls-2,.cls-3,.cls-8{fill:none;}.cls-10,.cls-2,.cls-3,.cls-4,.cls-6,.cls-7,.cls-8,.cls-9{stroke:#fff;stroke-miterlimit:10;}.cls-2{stroke-width:1.18px;}.cls-3{stroke-width:0.6px;}.cls-10,.cls-4,.cls-5,.cls-6,.cls-7,.cls-9{fill:#fff;}.cls-4{stroke-width:1px;}.cls-6{stroke-width:0.75px;}.cls-7{stroke-width:0.77px;}.cls-8{stroke-width:0.47px;}.cls-9{stroke-width:0.45px;}.cls-10{stroke-width:0.48px;}</style></defs><g id="Layer_2" data-name="Layer 2"><g id="Capa_1" data-name="Capa 1"><circle class="cls-1" cx="47.07" cy="47.07" r="47.07"/><rect class="cls-2" x="11.33" y="51.91" width="57.4" height="20.34" transform="translate(18.34 -8.53) rotate(15.74)"/><line class="cls-3" x1="20.55" y1="46.12" x2="15.11" y2="65.42"/><line class="cls-3" x1="25.08" y1="47.4" x2="19.64" y2="66.7"/><line class="cls-3" x1="29.62" y1="48.68" x2="24.18" y2="67.97"/><line class="cls-3" x1="34.16" y1="49.96" x2="28.72" y2="69.25"/><line class="cls-3" x1="38.69" y1="51.24" x2="33.25" y2="70.53"/><line class="cls-3" x1="43.23" y1="52.52" x2="37.79" y2="71.81"/><line class="cls-3" x1="47.76" y1="53.79" x2="42.33" y2="73.09"/><line class="cls-3" x1="52.3" y1="55.07" x2="46.86" y2="74.37"/><line class="cls-3" x1="56.84" y1="56.35" x2="51.4" y2="75.65"/><line class="cls-3" x1="61.37" y1="57.63" x2="55.93" y2="76.92"/><line class="cls-3" x1="65.91" y1="58.91" x2="60.47" y2="78.2"/><rect class="cls-4" x="17.84" y="45.89" width="2.65" height="9.56" transform="matrix(0.96, 0.27, -0.27, 0.96, 14.46, -3.3)"/><rect class="cls-4" x="22.32" y="47.15" width="2.65" height="9.56" transform="translate(14.97 -4.47) rotate(15.74)"/><rect class="cls-4" x="31.45" y="49.72" width="2.65" height="9.56" transform="translate(16.01 -6.85) rotate(15.74)"/><rect class="cls-4" x="36.05" y="51.02" width="2.65" height="9.56" transform="translate(16.54 -8.05) rotate(15.74)"/><rect class="cls-4" x="40.65" y="52.31" width="2.65" height="9.56" transform="translate(17.06 -9.25) rotate(15.74)"/><rect class="cls-4" x="49.69" y="54.96" width="2.65" height="9.56" transform="translate(18.12 -11.6) rotate(15.74)"/><rect class="cls-4" x="54.17" y="56.23" width="2.65" height="9.56" transform="translate(18.63 -12.77) rotate(15.74)"/><rect class="cls-4" x="63.24" y="58.78" width="2.65" height="9.56" transform="translate(19.66 -15.13) rotate(15.74)"/><ellipse class="cls-5" cx="72.2" cy="38.44" rx="1.93" ry="4.84"/><path class="cls-5" d="M78.82,40A4.12,4.12,0,0,1,80.58,38a5.15,5.15,0,0,1,2.62-.71,5,5,0,0,1,2.61.75A4.27,4.27,0,0,1,87.55,40l-.07.09a8.59,8.59,0,0,0-2-1.14,5.72,5.72,0,0,0-2.27-.42,6.71,6.71,0,0,0-4.29,1.53Z"/><path class="cls-6" d="M71,48.36H86.46S79.21,64.31,71,48.36Z"/><path class="cls-5" d="M66.52,32.74s2.84-3.26,5.8-3S66.52,32.74,66.52,32.74Z"/><path class="cls-5" d="M88.19,35.16a8.48,8.48,0,0,0-7.27-1.29C77,35.16,88.19,35.16,88.19,35.16Z"/><ellipse class="cls-7" cx="37.9" cy="30.71" rx="3.11" ry="4.33" transform="translate(3.81 65.61) rotate(-84.69)"/><ellipse class="cls-7" cx="51.74" cy="32.01" rx="3.11" ry="4.33" transform="translate(15.08 80.56) rotate(-84.69)"/><path class="cls-8" d="M42.3,31.23l1.52-14.8a.54.54,0,0,1,.59-.48l12.52,1.21a.78.78,0,0,1,.69.85L56.11,32.64"/><rect class="cls-9" x="43.61" y="16.54" width="13.91" height="4.31" rx="0.46" transform="translate(1.95 -4.6) rotate(5.31)"/><ellipse class="cls-7" cx="23.93" cy="30.58" rx="3.19" ry="4.3" transform="translate(-8.73 51.57) rotate(-84.69)"/><line class="cls-10" x1="28.27" y1="31.18" x2="30.38" y2="13.48"/></g></g></svg>