<svg xmlns="http://www.w3.org/2000/svg" viewBox="0 0 94.79 94.79"><defs><style>.cls-1,.cls-3,.cls-4{fill:none;stroke-miterlimit:10;}.cls-1{stroke:#39958f;stroke-width:0.66px;}.cls-2{fill:#39958f;}.cls-3,.cls-4{stroke:#fff;}.cls-3{stroke-width:0.31px;}.cls-4{stroke-width:0.24px;}</style></defs><g id="Layer_2" data-name="Layer 2"><g id="Capa_1" data-name="Capa 1"><circle class="cls-1" cx="47.4" cy="47.4" r="47.07"/><ellipse class="cls-2" cx="64.31" cy="29.86" rx="17.3" ry="9.46"/><path class="cls-2" d="M67.74,39.05a14.12,14.12,0,0,1,7.48,4.06l-1.53-5.5Z"/><ellipse class="cls-2" cx="55.46" cy="61.15" rx="17.3" ry="9.46"/><path class="cls-2" d="M58.88,70.34a14.09,14.09,0,0,1,7.48,4.06l-1.53-5.5Z"/><ellipse class="cls-2" cx="29" cy="41.52" rx="15.83" ry="8.66"/><path class="cls-2" d="M25.87,49.92A12.92,12.92,0,0,0,19,53.63l1.4-5Z"/><path class="cls-3" d="M52.9,25.53s1.52-1.38,5.32-.2,4.94-.78,4.94-.78.38-1,4.56.59a7.52,7.52,0,0,0,7.22-1"/><path class="cls-3" d="M52.51,29.66s1.52-1.37,5.32-.19,4.94-.79,4.94-.79.38-1,4.56.59a7.53,7.53,0,0,0,7.22-1"/><path class="cls-3" d="M52.11,33.8s1.52-1.38,5.32-.2,4.94-.79,4.94-.79.38-1,4.56.59a7.5,7.5,0,0,0,7.22-1"/><path class="cls-3" d="M45,57.41s1.52-1.38,5.32-.2,4.94-.78,4.94-.78.38-1,4.56.59a7.52,7.52,0,0,0,7.22-1"/><path class="cls-3" d="M44.63,61.54s1.52-1.37,5.32-.19,4.95-.79,4.95-.79.38-1,4.56.59a7.53,7.53,0,0,0,7.22-1"/><path class="cls-3" d="M44.24,65.68s1.52-1.38,5.32-.2,4.94-.79,4.94-.79.38-1,4.56.59a7.5,7.5,0,0,0,7.22-1"/><path class="cls-4" d="M18.2,39.85s1.41-.94,4.91-.14,4.56-.53,4.56-.53.35-.67,4.2.4a8.87,8.87,0,0,0,6.66-.67"/><path class="cls-4" d="M18.14,37.36s1.4-.94,4.91-.14,4.55-.53,4.55-.53.35-.67,4.21.4a8.89,8.89,0,0,0,6.66-.67"/><path class="cls-4" d="M17.84,42.66s1.4-.94,4.91-.14S27.3,42,27.3,42s.36-.67,4.21.4a8.87,8.87,0,0,0,6.66-.67"/><path class="cls-4" d="M17.48,45.46s1.4-.93,4.9-.13,4.56-.53,4.56-.53.35-.67,4.21.4a8.89,8.89,0,0,0,6.66-.67"/></g></g></svg>