<svg xmlns="http://www.w3.org/2000/svg" viewBox="0 0 94.79 94.79"><defs><style>.cls-1{fill:none;stroke:#39958f;stroke-miterlimit:10;stroke-width:0.66px;}.cls-2{fill:#39958f;}.cls-3{fill:#fff;}</style></defs><g id="Layer_2" data-name="Layer 2"><g id="Capa_1" data-name="Capa 1"><circle class="cls-1" cx="47.4" cy="47.4" r="47.07"/><path class="cls-2" d="M52.07,61.24H89.33S72.29,39.15,52.07,61.24Z"/><circle class="cls-2" cx="70.7" cy="40.48" r="9.31"/><rect class="cls-2" x="10.46" y="25.17" width="33.3" height="42.94"/><rect class="cls-3" x="12.74" y="36.23" width="5.55" height="5.55"/><rect class="cls-3" x="20.41" y="36.23" width="5.55" height="5.55"/><rect class="cls-3" x="28.08" y="36.23" width="5.55" height="5.55"/><rect class="cls-3" x="35.74" y="36.23" width="5.55" height="5.55"/><rect class="cls-3" x="12.74" y="44.08" width="5.55" height="5.55"/><rect class="cls-3" x="20.41" y="44.08" width="5.55" height="5.55"/><rect class="cls-3" x="28.08" y="44.08" width="5.55" height="5.55"/><rect class="cls-3" x="35.74" y="44.08" width="5.55" height="5.55"/><rect class="cls-3" x="12.74" y="51.93" width="5.55" height="5.55"/><rect class="cls-3" x="20.41" y="51.93" width="5.55" height="5.55"/><rect class="cls-3" x="28.08" y="51.93" width="5.55" height="5.55"/><rect class="cls-3" x="35.74" y="51.93" width="5.55" height="5.55"/><rect class="cls-3" x="12.74" y="59.78" width="5.55" height="5.55"/><rect class="cls-3" x="20.41" y="59.78" width="5.55" height="5.55"/><rect class="cls-3" x="14.41" y="22.97" width="1.9" height="6.72"/><rect class="cls-3" x="18.95" y="22.97" width="1.9" height="6.72"/><rect class="cls-3" x="23.5" y="22.97" width="1.9" height="6.72"/><rect class="cls-3" x="28.05" y="22.97" width="1.9" height="6.72"/><rect class="cls-3" x="32.59" y="22.97" width="1.9" height="6.72"/><rect class="cls-3" x="37.14" y="22.97" width="1.9" height="6.72"/></g></g></svg>