<svg xmlns="http://www.w3.org/2000/svg" viewBox="0 0 94.79 94.79"><defs><style>.cls-1,.cls-4,.cls-5{fill:none;stroke:#39958f;stroke-miterlimit:10;}.cls-1{stroke-width:0.66px;}.cls-2{fill:#39958f;}.cls-3{fill:#fff;}.cls-4{stroke-width:0.93px;}.cls-5{stroke-width:0.71px;}</style></defs><g id="Layer_2" data-name="Layer 2"><g id="Capa_1" data-name="Capa 1"><circle class="cls-1" cx="47.4" cy="47.4" r="47.07"/><circle class="cls-2" cx="23" cy="43.05" r="11.82"/><polygon class="cls-3" points="30.41 42.74 19.36 50.13 18.49 36.86 30.41 42.74"/><rect class="cls-2" x="47.62" y="75.12" width="1.92" height="8.61" transform="translate(-33.34 35.18) rotate(-30.18)"/><polygon class="cls-2" points="41.43 67.14 41.47 78.63 45.6 76.22 51.4 72.85 41.43 67.14"/><polygon class="cls-2" points="41.44 80.61 45.6 76.22 41.47 78.63 41.44 80.61"/><polygon class="cls-2" points="53.09 73.79 47.22 75.22 51.36 72.83 53.09 73.79"/><line class="cls-4" x1="36.39" y1="68.61" x2="29.4" y2="68.52"/><line class="cls-4" x1="40.01" y1="63.4" x2="36.79" y2="57.19"/><line class="cls-4" x1="46.17" y1="63.22" x2="49.92" y2="57.32"/><path class="cls-2" d="M42.57,20.47a40.48,40.48,0,0,1-.46-5.8c0-1,0-1.94,0-2.9a3.6,3.6,0,0,1,.31-1.5,1.16,1.16,0,0,1,1.24-.75,1,1,0,0,0-.91.88,3.63,3.63,0,0,0-.08,1.36c.08,1,.11,1.93.13,2.9A43.52,43.52,0,0,1,42.57,20.47Z"/><path class="cls-2" d="M44.31,12.77a3.91,3.91,0,0,1-.5,2.43,12.73,12.73,0,0,1-1.3,2.11c-.5.65-1,1.27-1.53,1.89l-.78.93a5.73,5.73,0,0,0-.73,1,7.22,7.22,0,0,1,1.06-2.22c.43-.7.93-1.36,1.41-2s1-1.29,1.39-1.95c.21-.34.42-.68.6-1A3,3,0,0,0,44.31,12.77Z"/><path class="cls-2" d="M42.57,21.42a1.77,1.77,0,0,0-1.42,1.09,2.17,2.17,0,0,0,.15,1.84,1.46,1.46,0,0,1-.83-.84,1.71,1.71,0,0,1,0-1.26,1.6,1.6,0,0,1,.9-.92A1.42,1.42,0,0,1,42.57,21.42Z"/><path class="cls-2" d="M44.87,22.61a3.43,3.43,0,0,1,1.46,1.14,2.8,2.8,0,0,1,.57,1.87,3.38,3.38,0,0,1-.75,1.79,6.73,6.73,0,0,1-.66.65c-.27.17-.51.35-.78.49.16-.26.35-.49.52-.73s.32-.49.46-.73a3.84,3.84,0,0,0,.5-1.52A2.92,2.92,0,0,0,45.85,24,6.87,6.87,0,0,0,44.87,22.61Z"/><path class="cls-2" d="M38.13,23.64a10.28,10.28,0,0,0,0,1.66,4.65,4.65,0,0,0,.37,1.5A3.42,3.42,0,0,0,39.39,28a9.44,9.44,0,0,0,1.35.94,6.63,6.63,0,0,1-.86-.13,3,3,0,0,1-.82-.37,2.91,2.91,0,0,1-1.23-1.36A3.71,3.71,0,0,1,38.13,23.64Z"/><path class="cls-2" d="M42.8,25.14a26.8,26.8,0,0,1,.36,2.8c.09.93.13,1.88.16,2.79a3.42,3.42,0,0,1-.19,1.53,1.51,1.51,0,0,1-.56.68,1.25,1.25,0,0,1-.85.18,1.22,1.22,0,0,1-.79-.33,1.34,1.34,0,0,1-.35-.74,3.57,3.57,0,0,1,.16-1.43A4.54,4.54,0,0,0,40.92,32a.78.78,0,0,0,.83.59c.79,0,.93-.93.86-1.79A39.25,39.25,0,0,1,42.8,25.14Z"/><line class="cls-5" x1="35.42" y1="24.78" x2="67.82" y2="24.78"/><line class="cls-5" x1="35.42" y1="20.94" x2="67.82" y2="20.94"/><line class="cls-5" x1="35.42" y1="17.11" x2="67.82" y2="17.11"/><line class="cls-5" x1="35.42" y1="13.27" x2="67.82" y2="13.27"/><line class="cls-5" x1="35.42" y1="28.08" x2="67.82" y2="28.08"/><path class="cls-2" d="M83.65,37.57V49.4H81a1,1,0,0,0,0-.18,3.22,3.22,0,0,0-6.32,0c0,.06,0,.13,0,.18H72.39V46.71h.1a3.25,3.25,0,1,0,0-6.46h-.1v-2.7Z"/><path class="cls-2" d="M83.89,54.39V66.22H81.23c0-.06,0-.12,0-.18a3.26,3.26,0,0,0-6.38,0,1.09,1.09,0,0,0,0,.18H72.52V63.53h.11a3.25,3.25,0,1,0,0-6.45h-.11V54.39Z"/><ellipse class="cls-2" cx="78.82" cy="52.52" rx="2.32" ry="2.15"/><path class="cls-2" d="M80.93,53c-.45,1.62.45,2.24.45,2.24l-5,.19s.91-.62.45-2.24"/><path class="cls-2" d="M57.61,54.09l3-11.45,2.59.68a.84.84,0,0,0,0,.17,3.28,3.28,0,0,0,6.21,1.62l0-.18,2.29.6L71,48.14l-.1,0a3.25,3.25,0,1,0-1.63,6.24l.1,0L68.68,57Z"/><ellipse class="cls-2" cx="62.08" cy="57.19" rx="2.15" ry="2.33" transform="translate(-8.93 102.82) rotate(-75.38)"/><path class="cls-2" d="M60.16,56.14c.85-1.44.12-2.27.12-2.27L65.2,55s-1,.37-1,2"/></g></g></svg>