<svg xmlns="http://www.w3.org/2000/svg" viewBox="0 0 94.13 94.13"><defs><style>.cls-1{fill:#2786a0;}.cls-2,.cls-4{fill:#fff;}.cls-3,.cls-6{fill:none;}.cls-3,.cls-4,.cls-6{stroke:#fff;stroke-miterlimit:10;}.cls-3{stroke-width:0.59px;}.cls-4{stroke-width:0.39px;}.cls-5{fill:#1f839b;}.cls-6{stroke-width:0.57px;}</style></defs><g id="Layer_2" data-name="Layer 2"><g id="Capa_1" data-name="Capa 1"><circle class="cls-1" cx="47.07" cy="47.07" r="47.07"/><path class="cls-2" d="M56.86,38.05h27S71.51,22,56.86,38.05Z"/><circle class="cls-2" cx="70.36" cy="23.01" r="6.75"/><path class="cls-3" d="M69.23,58.34h20.7S80.47,46.07,69.23,58.34Z"/><circle class="cls-3" cx="79.58" cy="46.81" r="5.17"/><path class="cls-3" d="M37.42,89.59H58.11S48.65,77.32,37.42,89.59Z"/><circle class="cls-3" cx="47.76" cy="78.06" r="5.17"/><path class="cls-3" d="M57.54,79H78.23S68.77,66.68,57.54,79Z"/><circle class="cls-3" cx="67.89" cy="67.42" r="5.17"/><rect class="cls-4" x="10.7" y="22.4" width="19.77" height="27.82"/><rect class="cls-5" x="14.22" y="24.75" width="12.72" height="1.77"/><rect class="cls-5" x="14.22" y="33.2" width="12.72" height="0.64"/><rect class="cls-5" x="14.22" y="35.48" width="12.72" height="0.64"/><rect class="cls-5" x="14.22" y="37.77" width="12.72" height="0.64"/><rect class="cls-5" x="14.22" y="40.05" width="12.72" height="0.64"/><rect class="cls-5" x="14.22" y="42.33" width="12.72" height="0.64"/><rect class="cls-5" x="14.22" y="44.61" width="12.72" height="0.64"/><rect class="cls-5" x="14.22" y="46.9" width="12.72" height="0.64"/><polygon class="cls-2" points="28.9 65.79 26.49 64.42 37.26 42.53 39.66 43.91 28.9 65.79"/><polygon class="cls-5" points="38.97 45.31 36.56 43.94 36.74 43.59 39.14 44.97 38.97 45.31"/><polygon class="cls-2" points="28.57 66.54 26.17 68.17 26.07 65.11 28.57 66.54"/><line class="cls-6" x1="35.06" y1="27.84" x2="39.47" y2="27.84"/><line class="cls-6" x1="42.05" y1="27.84" x2="46.46" y2="27.84"/><line class="cls-6" x1="49.03" y1="27.84" x2="53.45" y2="27.84"/><line class="cls-6" x1="56.02" y1="27.84" x2="60.43" y2="27.84"/></g></g></svg>