<svg xmlns="http://www.w3.org/2000/svg" viewBox="0 0 135.89 135.89"><defs><style>.cls-1{fill:#2786a0;}.cls-10,.cls-2,.cls-3,.cls-5,.cls-7{fill:none;}.cls-10,.cls-11,.cls-2,.cls-3,.cls-4,.cls-5,.cls-7,.cls-8,.cls-9{stroke:#fff;stroke-miterlimit:10;}.cls-2{stroke-width:1.29px;}.cls-3{stroke-width:0.66px;}.cls-11,.cls-4,.cls-6,.cls-8,.cls-9{fill:#fff;}.cls-4{stroke-width:1.09px;}.cls-5{stroke-width:0.9px;}.cls-7{stroke-width:0.4px;}.cls-8{stroke-width:0.37px;}.cls-10,.cls-9{stroke-width:0.36px;}.cls-11{stroke-width:0.34px;}</style></defs><g id="Layer_2" data-name="Layer 2"><g id="Capa_1" data-name="Capa 1"><circle class="cls-1" cx="67.94" cy="67.94" r="67.94"/><polygon class="cls-2" points="67.81 119.98 13.2 98.26 20.35 77.42 74.96 99.14 67.81 119.98"/><line class="cls-3" x1="25.66" y1="79.65" x2="18.61" y2="100.19"/><line class="cls-3" x1="30.14" y1="81.43" x2="23.1" y2="101.97"/><line class="cls-3" x1="34.62" y1="83.21" x2="27.58" y2="103.75"/><line class="cls-3" x1="39.11" y1="85" x2="32.06" y2="105.54"/><line class="cls-3" x1="43.59" y1="86.78" x2="36.55" y2="107.32"/><line class="cls-3" x1="48.08" y1="88.56" x2="41.03" y2="109.11"/><line class="cls-3" x1="52.56" y1="90.35" x2="45.52" y2="110.89"/><line class="cls-3" x1="57.05" y1="92.13" x2="50" y2="112.67"/><line class="cls-3" x1="61.53" y1="93.92" x2="54.49" y2="114.46"/><line class="cls-3" x1="66.01" y1="95.7" x2="58.97" y2="116.24"/><line class="cls-3" x1="70.5" y1="97.48" x2="63.45" y2="118.02"/><polygon class="cls-4" points="23.48 89.87 20.96 88.87 24.32 79.08 26.84 80.08 23.48 89.87"/><polygon class="cls-4" points="27.9 91.63 25.38 90.63 28.74 80.83 31.26 81.84 27.9 91.63"/><polygon class="cls-4" points="36.93 95.22 34.41 94.22 37.77 84.43 40.29 85.43 36.93 95.22"/><polygon class="cls-4" points="41.48 97.03 38.96 96.03 42.31 86.23 44.83 87.24 41.48 97.03"/><polygon class="cls-4" points="46.02 98.83 43.5 97.83 46.86 88.04 49.38 89.04 46.02 98.83"/><polygon class="cls-4" points="54.96 102.5 52.44 101.5 55.8 91.71 58.31 92.71 54.96 102.5"/><polygon class="cls-4" points="59.38 104.26 56.86 103.26 60.22 93.47 62.74 94.47 59.38 104.26"/><polygon class="cls-4" points="68.35 107.83 65.83 106.83 69.19 97.03 71.7 98.04 68.35 107.83"/><path class="cls-5" d="M47.81,85.6S34.87,69.53,42.44,63.86c7.1-5.32,22.84,10.34,24.79,12.34q.22.22.45.42l2.13,1.91a9,9,0,0,0,1.26,1c3.67,2.26,19.63,10.91,8.84-17.34-12.14-31.77,8.74-17.07,8.74-17.07"/><ellipse class="cls-6" cx="81.32" cy="29.09" rx="3.35" ry="2.59"/><ellipse class="cls-6" cx="92.09" cy="29.1" rx="3.35" ry="2.59"/><path class="cls-7" d="M84.5,29l.11-12.42a.44.44,0,0,1,.42-.44l9.75,0a.61.61,0,0,1,.59.65l-.11,12.28"/><rect class="cls-8" x="84.59" y="16.15" width="10.78" height="3.6" rx="0.38"/><ellipse class="cls-6" cx="102.64" cy="29.6" rx="2.96" ry="2.37"/><line class="cls-9" x1="105.44" y1="29.63" x2="105.76" y2="16.4"/><ellipse class="cls-6" cx="118.13" cy="51.78" rx="2.96" ry="2.37"/><line class="cls-10" x1="120.93" y1="51.81" x2="121.25" y2="38.57"/><ellipse class="cls-6" cx="98.17" cy="47.19" rx="2.99" ry="2.44"/><path class="cls-11" d="M101,47.3l.19-9.86.08-4.09a0,0,0,0,1,0,0c.29.38,1.93,2.51,2.69,3.39,1.17,1.36,1.51,2.57.35,5.35h0c.09-.53.63-4.62-3.22-4.47"/><ellipse class="cls-6" cx="110.14" cy="44.57" rx="2.99" ry="2.44"/><path class="cls-11" d="M113,44.68l.19-9.86.08-4.09a0,0,0,0,1,.05,0c.29.38,1.93,2.51,2.69,3.39,1.17,1.36,1.51,2.57.35,5.35h0c.09-.53.63-4.62-3.22-4.47"/></g></g></svg>