<svg xmlns="http://www.w3.org/2000/svg" viewBox="0 0 129.31 129.31"><defs><style>.cls-1{fill:#2a1d4a;}.cls-2,.cls-5,.cls-6,.cls-7{fill:none;}.cls-2,.cls-3,.cls-5,.cls-6,.cls-7,.cls-8{stroke:#fff;stroke-miterlimit:10;}.cls-2{stroke-width:0.77px;}.cls-3,.cls-4{fill:#fff;}.cls-3{stroke-width:0.43px;}.cls-5{stroke-width:0.89px;}.cls-6{stroke-width:0.67px;}.cls-7,.cls-8{stroke-width:0.54px;}.cls-8{fill:#114368;}</style></defs><g id="Layer_2" data-name="Layer 2"><g id="Capa_1" data-name="Capa 1"><circle class="cls-1" cx="64.66" cy="64.66" r="64.66"/><polyline class="cls-2" points="112.36 65.7 77.68 65.57 77.68 83.09 61.11 83.09 61.26 101.6 23.38 101.6 14.31 91.23 51.63 91.23 51.48 72.72 68.05 72.72 68.05 55.2 93.68 55.2"/><polygon class="cls-1" points="39.02 73.61 36.4 72.11 36.58 71.74 39.2 73.24 39.02 73.61"/><rect class="cls-3" x="6.97" y="56.33" width="20.29" height="30.23"/><rect class="cls-1" x="10.59" y="58.89" width="13.06" height="1.92"/><rect class="cls-1" x="10.59" y="68.07" width="13.06" height="0.7"/><rect class="cls-1" x="10.59" y="70.55" width="13.06" height="0.7"/><rect class="cls-1" x="10.59" y="73.03" width="13.06" height="0.7"/><rect class="cls-1" x="10.59" y="75.51" width="13.06" height="0.7"/><rect class="cls-1" x="10.59" y="77.99" width="13.06" height="0.7"/><rect class="cls-1" x="10.59" y="80.47" width="13.06" height="0.7"/><rect class="cls-1" x="10.59" y="82.95" width="13.06" height="0.7"/><polygon class="cls-4" points="28.05 95.87 25.43 94.37 37.15 70.59 39.77 72.08 28.05 95.87"/><polygon class="cls-4" points="27.78 96.4 25.26 98.1 25.16 94.9 27.78 96.4"/><polyline class="cls-5" points="75.05 54.89 75.05 25 112.16 25 112.16 54.89"/><line class="cls-5" x1="74.89" y1="38.56" x2="112.24" y2="38.87"/><rect class="cls-4" x="75.05" y="25" width="4.07" height="5.14"/><rect class="cls-4" x="75.03" y="35.23" width="4.07" height="3.34"/><rect class="cls-4" x="83.17" y="35.23" width="4.07" height="3.34"/><rect class="cls-4" x="91.32" y="35.23" width="4.07" height="3.34"/><rect class="cls-4" x="99.41" y="35.23" width="4.62" height="3.34"/><rect class="cls-4" x="108.09" y="35.23" width="4.07" height="3.34"/><rect class="cls-4" x="79.1" y="30.11" width="4.07" height="5.14"/><rect class="cls-4" x="87.22" y="30.11" width="4.07" height="5.14"/><rect class="cls-4" x="95.33" y="30.11" width="4.07" height="5.14"/><rect class="cls-4" x="104.03" y="30.11" width="4.07" height="5.14"/><rect class="cls-4" x="83.16" y="25.03" width="4.07" height="5.14"/><rect class="cls-4" x="91.27" y="25" width="4.07" height="5.14"/><rect class="cls-4" x="99.95" y="25" width="4.07" height="5.14"/><rect class="cls-4" x="99.4" y="25" width="4.07" height="5.14"/><rect class="cls-4" x="108.25" y="25" width="4.07" height="5.14"/><rect class="cls-4" x="108.1" y="25" width="4.07" height="5.14"/><line class="cls-6" x1="109.44" y1="54.66" x2="114.95" y2="54.66"/><line class="cls-7" x1="51.63" y1="91.23" x2="61.26" y2="101.6"/><line class="cls-7" x1="51.48" y1="72.72" x2="61.11" y2="83.09"/><line class="cls-8" x1="68.05" y1="72.72" x2="77.68" y2="83.09"/><line class="cls-8" x1="68.05" y1="55.21" x2="77.68" y2="65.57"/></g></g></svg>