<svg xmlns="http://www.w3.org/2000/svg" viewBox="0 0 33.17 61.23"><defs><style>.cls-1{fill:#459692;stroke:#459692;stroke-miterlimit:10;stroke-width:0.75px;}</style></defs><g id="Layer_2" data-name="Layer 2"><g id="Capa_1" data-name="Capa 1"><path class="cls-1" d="M15.38,25.34c0-6,.06-11.94,0-17.91,0-2.55.86-3.88,3.47-4.36,3.69-.67,7.33-1.62,11-2.52,2.13-.54,3,.16,3,2.39-.19,10,1.34,7.72-7.76,10-7.76,2-6.4.35-6.46,8.07q-.13,15.17,0,30.34a8.36,8.36,0,0,1-4.74,8c-3.33,1.85-6.78,2.18-10.18.2-3.74-2.19-4.4-6.71-1.4-10.18A10.33,10.33,0,0,1,12.94,45.8c2.11.5,2.49,0,2.47-2C15.34,37.68,15.39,31.51,15.38,25.34Z"/></g></g></svg>