<svg xmlns="http://www.w3.org/2000/svg" viewBox="0 0 18.89 61.19"><defs><style>.cls-1{fill:#3391a5;stroke:#3391a5;stroke-miterlimit:10;stroke-width:0.75px;}</style></defs><g id="Layer_2" data-name="Layer 2"><g id="Capa_1" data-name="Capa 1"><path class="cls-1" d="M.41,33.77c0-7.79,0-15.58,0-23.37A9.94,9.94,0,0,1,13.9,1c4.6,1.66,6.07,6.57,3,10.39A10.07,10.07,0,0,1,6,15.15C4,14.64,3.49,15,3.51,17q.11,13.55,0,27.08c0,1.93.54,2.28,2.34,1.59,7.37-2.83,9.69-8.84,6.24-16.11-.6-1.27-2.74-3-.67-4.1,1.79-1,2.56,1.48,3.36,2.71,4.46,6.9,3.76,13-2.06,18.72-1.63,1.6-3.41,3-5.07,4.59a13.34,13.34,0,0,0-3.71,6.3c-.34,1.22-.09,3.38-2.17,3C0,60.44.44,58.5.43,57.15c0-6.08,0-12.16,0-18.25Z"/></g></g></svg>