<svg xmlns="http://www.w3.org/2000/svg" viewBox="0 0 15.3 45.08"><defs><style>.cls-1{fill:#3391a5;stroke:#3391a5;stroke-miterlimit:10;stroke-width:0.75px;}</style></defs><g id="Layer_2" data-name="Layer 2"><g id="Capa_1" data-name="Capa 1"><path class="cls-1" d="M14.92,19.9c0,5.76,0,11.51,0,17.26a6.81,6.81,0,0,1-4.1,6.51C8,45.06,5.21,45.17,2.56,43.3A5.31,5.31,0,0,1,1.31,36a8.47,8.47,0,0,1,10-3.35c1,.39,1,.39,1-.72V2.78a8.63,8.63,0,0,1,0-1.14A1.29,1.29,0,0,1,13.82.39,1.24,1.24,0,0,1,14.93,1.8c0,1.73,0,3.47,0,5.21V19.9Z"/></g></g></svg>