<svg xmlns="http://www.w3.org/2000/svg" viewBox="0 0 25.52 49.18"><defs><style>.cls-1{fill:#459692;stroke:#459692;stroke-miterlimit:10;stroke-width:0.75px;}</style></defs><g id="Layer_2" data-name="Layer 2"><g id="Capa_1" data-name="Capa 1"><path class="cls-1"
                                                                                                                                                                                                                                                       d="M13.58,18.61c0-5.33,0-10.66,0-16,0-.33,0-.65,0-1A1.29,1.29,0,0,1,14.74.4a1.17,1.17,0,0,1,1.41.75c.92,3.13,3.35,5.16,5.34,7.51a13.49,13.49,0,0,1,3.59,7.25,26,26,0,0,1-.67,6.74,2.23,2.23,0,0,0,0,1.28c1.18,2.7.65,5.45.23,8.19-.24,1.6-.53,3.19-.79,4.79-.06.31,0,.76-.4.78s-.49-.47-.51-.8c-.1-2.31-.15-4.61-.27-6.91a11.53,11.53,0,0,0-1.6-5.87A4.29,4.29,0,0,0,17.69,22c-1.25-.1-1.38,0-1.38,1.26q0,8.26,0,16.54a9.31,9.31,0,0,1-.6,3.38A8.75,8.75,0,0,1,4.91,48.4a6,6,0,0,1-3-9.87,9.14,9.14,0,0,1,10.79-2.78c1,.41.9,0,.9-.71C13.57,29.57,13.58,24.09,13.58,18.61Zm9,1.92a12.11,12.11,0,0,0-1.35-6.87,4.49,4.49,0,0,0-3.76-2.37c-1-.07-1.32.35-1,1.31a9.27,9.27,0,0,0,1.79,3.18C19.68,17.35,21.14,18.9,22.57,20.53Z"
/></g></g></svg>
